<svg width="59" height="126" viewBox="0 0 59 126" fill="none" xmlns="http://www.w3.org/2000/svg">
<path d="M21.354 125.165L19.4422 113.778L10.5361 121.127L21.354 125.165ZM12.3615 113.55L13.1835 112.981C11.219 110.146 9.54254 107.457 8.12992 104.902L7.25482 105.386L6.37973 105.87C7.82872 108.49 9.54164 111.237 11.5396 114.12L12.3615 113.55ZM3.17051 96.5212L4.11139 96.1825C2.91951 92.872 2.24064 89.8313 1.99225 87.022L0.996136 87.1101L2.19941e-05 87.1981C0.265498 90.2008 0.987586 93.4101 2.22963 96.86L3.17051 96.5212ZM1.86683 77.5135L2.82732 77.7918C3.6992 74.7827 5.14316 72.0412 7.02388 69.4895L6.21891 68.8962L5.41393 68.3029C3.41588 71.0138 1.85377 73.9653 0.906335 77.2352L1.86683 77.5135ZM12.8676 61.8484L13.5239 62.6029C15.8633 60.5679 18.4407 58.6383 21.1498 56.7556L20.5791 55.9344L20.0084 55.1132C17.2648 57.0199 14.6242 58.9949 12.2113 61.0939L12.8676 61.8484ZM28.6855 50.5653L29.2279 51.4054C31.9596 49.6418 34.7128 47.8703 37.3699 46.049L36.8046 45.2242L36.2392 44.3993C33.6095 46.2018 30.8816 47.9572 28.1432 49.7251L28.6855 50.5653ZM44.578 39.3933L45.2225 40.1579C47.8213 37.9674 50.191 35.6373 52.1804 33.0985L51.3933 32.4817L50.6062 31.8649C48.7238 34.2671 46.4592 36.4998 43.9335 38.6287L44.578 39.3933ZM56.0644 24.0238L57.0122 24.3425C58.0309 21.3137 58.5133 18.0261 58.3289 14.4214L57.3302 14.4725L56.3315 14.5236C56.5033 17.881 56.0541 20.9174 55.1165 23.705L56.0644 24.0238ZM55.4372 4.97661L56.3859 4.6605C55.8841 3.15457 55.2821 1.60208 54.5744 1.71959e-05L53.6597 0.404114L52.745 0.80821C53.4291 2.35697 54.008 3.85074 54.4884 5.29273L55.4372 4.97661Z" fill="white"/>
</svg>
